<svg width="254" height="68" viewBox="0 0 254 68" fill="none" xmlns="http://www.w3.org/2000/svg">
<path fill-rule="evenodd" clip-rule="evenodd" d="M30.3675 35.2269V30.5829C30.3675 28.4389 32.1115 26.6939 34.2555 26.6939C36.4005 26.6939 38.1445 28.4389 38.1445 30.5829V35.2269H30.3675ZM34.2555 21.0349C29.2665 21.0349 25.1645 24.8849 24.7495 29.7689C24.7305 29.9039 24.7085 30.0379 24.7085 30.1779V43.1939C24.7085 44.7559 25.9755 46.0229 27.5385 46.0229C29.1005 46.0229 30.3675 44.7559 30.3675 43.1939V40.8859H38.1445V43.1939C38.1445 44.7559 39.4105 46.0229 40.9735 46.0229C42.5365 46.0229 43.8035 44.7559 43.8035 43.1939V30.1779C43.8035 30.0379 43.7815 29.9039 43.7615 29.7689C43.3465 24.8849 39.2455 21.0349 34.2555 21.0349V21.0349Z" fill="#313048"/>
<path fill-rule="evenodd" clip-rule="evenodd" d="M34.2558 61.3994C18.8878 61.3994 6.38581 48.8974 6.38581 33.5294C6.38581 18.1614 18.8878 5.6594 34.2558 5.6594C49.6238 5.6594 62.1258 18.1614 62.1258 33.5294C62.1258 48.8974 49.6238 61.3994 34.2558 61.3994M34.2558 0.000396729C15.7678 0.000396729 0.726807 15.0414 0.726807 33.5294C0.726807 52.0174 15.7678 67.0584 34.2558 67.0584C52.7438 67.0584 67.7848 52.0174 67.7848 33.5294C67.7848 15.0414 52.7438 0.000396729 34.2558 0.000396729" fill="#313048"/>
<path fill-rule="evenodd" clip-rule="evenodd" d="M99.7839 35.2269V30.5829C99.7839 28.4389 101.528 26.6939 103.672 26.6939C105.817 26.6939 107.561 28.4389 107.561 30.5829V35.2269H99.7839ZM103.672 21.0349C98.6829 21.0349 94.5809 24.8849 94.1659 29.7689C94.1469 29.9039 94.1249 30.0379 94.1249 30.1779V43.1939C94.1249 44.7559 95.3919 46.0229 96.9549 46.0229C98.5169 46.0229 99.7839 44.7559 99.7839 43.1939V40.8859H107.561V43.1939C107.561 44.7559 108.827 46.0229 110.39 46.0229C111.953 46.0229 113.22 44.7559 113.22 43.1939V30.1779C113.22 30.0379 113.198 29.9039 113.178 29.7689C112.763 24.8849 108.662 21.0349 103.672 21.0349V21.0349Z" fill="#313048"/>
<path fill-rule="evenodd" clip-rule="evenodd" d="M161.792 21.0354C159.174 21.0354 156.801 22.0954 155.074 23.8074C153.348 22.0954 150.974 21.0354 148.356 21.0354C143.367 21.0354 139.266 24.8844 138.85 29.7694C138.831 29.9034 138.809 30.0384 138.809 30.1784V43.1934C138.809 44.7564 140.076 46.0234 141.639 46.0234C143.202 46.0234 144.468 44.7564 144.468 43.1934V30.5824C144.468 28.4384 146.212 26.6944 148.356 26.6944C150.501 26.6944 152.245 28.4384 152.245 30.5824V37.5344C152.245 39.0974 153.511 40.3644 155.074 40.3644C156.637 40.3644 157.904 39.0974 157.904 37.5344V30.5824C157.904 28.4384 159.648 26.6944 161.792 26.6944C163.936 26.6944 165.68 28.4384 165.68 30.5824V43.1934C165.68 44.7564 166.947 46.0234 168.51 46.0234C170.073 46.0234 171.339 44.7564 171.339 43.1934V30.1784C171.339 30.0384 171.318 29.9034 171.298 29.7694C170.883 24.8844 166.782 21.0354 161.792 21.0354" fill="#313048"/>
<path fill-rule="evenodd" clip-rule="evenodd" d="M133.5 37.5965C132.148 36.8135 130.416 37.2765 129.634 38.6285C128.94 39.8285 127.649 40.5745 126.264 40.5745C124.12 40.5745 122.376 38.8295 122.376 36.6855V30.6325C122.376 30.6305 122.377 30.6285 122.377 30.6265C122.377 28.4825 124.121 26.7385 126.265 26.7385C127.559 26.7385 128.765 27.3805 129.491 28.4545C130.038 29.2645 130.93 29.7005 131.838 29.7005C132.383 29.7005 132.934 29.5435 133.42 29.2155C134.715 28.3405 135.055 26.5815 134.18 25.2865C132.4 22.6525 129.441 21.0795 126.265 21.0795C121.309 21.0795 117.226 24.8765 116.764 29.7135C116.739 29.8655 116.717 30.0185 116.717 30.1785V37.5345C116.717 37.8695 116.786 38.1875 116.893 38.4855C117.738 42.8915 121.616 46.2335 126.264 46.2335C129.661 46.2335 132.83 44.4055 134.532 41.4625C135.315 40.1095 134.853 38.3795 133.5 37.5965" fill="#313048"/>
<path fill-rule="evenodd" clip-rule="evenodd" d="M229.692 37.4694C228.34 36.6854 226.608 37.1494 225.826 38.5014C225.132 39.7014 223.841 40.4474 222.456 40.4474C220.312 40.4474 218.568 38.7024 218.568 36.5584V30.5054C218.568 30.5034 218.569 30.5014 218.569 30.4994C218.569 28.3554 220.313 26.6114 222.457 26.6114C223.751 26.6114 224.956 27.2534 225.683 28.3274C226.23 29.1374 227.122 29.5734 228.03 29.5734C228.575 29.5734 229.126 29.4164 229.612 29.0884C230.907 28.2134 231.247 26.4544 230.372 25.1594C228.592 22.5254 225.633 20.9524 222.457 20.9524C217.501 20.9524 213.418 24.7494 212.956 29.5864C212.931 29.7384 212.909 29.8914 212.909 30.0514V37.4074C212.909 37.7424 212.978 38.0604 213.085 38.3584C213.93 42.7644 217.808 46.1064 222.456 46.1064C225.853 46.1064 229.022 44.2784 230.724 41.3354C231.507 39.9824 231.045 38.2524 229.692 37.4694" fill="#313048"/>
<path fill-rule="evenodd" clip-rule="evenodd" d="M243.846 40.4271C243.801 40.4271 243.759 40.4381 243.715 40.4401C241.632 40.3701 239.958 38.6581 239.958 36.5591V30.5001C239.958 28.3561 241.702 26.6111 243.846 26.6111C245.14 26.6111 246.346 27.2531 247.072 28.3281C247.506 28.9691 247.734 29.7201 247.734 30.5001V36.5391C247.734 37.3181 247.506 38.0691 247.072 38.7111C246.346 39.7851 245.14 40.4271 243.846 40.4271M253.367 29.7921C253.366 29.7771 253.364 29.7621 253.363 29.7471C253.352 29.6541 253.35 29.5571 253.331 29.4671C253.165 27.9261 252.635 26.4531 251.761 25.1601C249.982 22.5251 247.023 20.9521 243.846 20.9521C238.886 20.9521 234.801 24.7551 234.345 29.5971C234.32 29.7461 234.299 29.8951 234.299 30.0511V37.4071C234.299 37.7431 234.367 38.0601 234.475 38.3581C235.319 42.7641 239.197 46.1061 243.846 46.1061C243.944 46.1061 244.036 46.0871 244.131 46.0771C247.198 45.9861 250.035 44.4341 251.761 41.8791C252.479 40.8171 252.963 39.6341 253.207 38.3921C253.322 38.0841 253.393 37.7551 253.393 37.4071V30.0511C253.393 29.9621 253.375 29.8791 253.367 29.7921" fill="#313048"/>
<path fill-rule="evenodd" clip-rule="evenodd" d="M188.855 29.8981H181.178C181.468 28.0391 183.075 26.6111 185.015 26.6111C186.308 26.6111 187.514 27.2531 188.24 28.3281C188.561 28.8021 188.768 29.3371 188.855 29.8981M192.929 25.1591C191.149 22.5251 188.19 20.9521 185.015 20.9521C179.968 20.9521 175.835 24.8901 175.5 29.8531C175.488 29.9611 175.467 30.0671 175.467 30.1781V37.5351C175.467 37.9421 175.557 38.3281 175.713 38.6781C176.68 42.9241 180.479 46.1061 185.015 46.1061C185.019 46.1061 185.023 46.1051 185.027 46.1051C188.419 46.1001 191.581 44.2741 193.282 41.3351C194.065 39.9831 193.603 38.2521 192.251 37.4691C190.897 36.6861 189.167 37.1481 188.384 38.5001C187.689 39.7001 186.398 40.4461 185.015 40.4461C185.013 40.4461 185.011 40.4471 185.009 40.4471C182.867 40.4441 181.126 38.7011 181.126 36.5591V35.5571H191.732C193.295 35.5571 194.562 34.2901 194.562 32.7271V29.4741C194.562 29.0591 194.468 28.6691 194.308 28.3141C194.045 27.1941 193.583 26.1261 192.929 25.1591" fill="#313048"/>
</svg>
